<svg width="23" height="24" viewBox="0 0 23 24" fill="none" xmlns="http://www.w3.org/2000/svg">
<path d="M17.381 4.152C17.1152 4.152 16.8553 4.23645 16.6343 4.39468C16.4133 4.55291 16.241 4.77781 16.1393 5.04094C16.0376 5.30406 16.011 5.5936 16.0628 5.87293C16.1147 6.15226 16.2427 6.40885 16.4306 6.61023C16.6186 6.81162 16.8581 6.94877 17.1188 7.00433C17.3795 7.05989 17.6497 7.03138 17.8953 6.92239C18.1409 6.8134 18.3508 6.62883 18.4985 6.39202C18.6462 6.15521 18.725 5.87681 18.725 5.592C18.725 5.21009 18.5834 4.84382 18.3313 4.57377C18.0793 4.30371 17.7374 4.152 17.381 4.152ZM22.533 7.056C22.5112 6.06036 22.3372 5.07528 22.0178 4.14C21.733 3.33976 21.2898 2.61513 20.7186 2.016C20.164 1.40091 19.4861 0.929012 18.7362 0.636C17.8656 0.283393 16.9451 0.092652 16.0146 0.0719999C14.8274 -6.70552e-08 14.4466 0 11.4002 0C8.35379 0 7.97299 -6.70552e-08 6.78579 0.0719999C5.85524 0.092652 4.93482 0.283393 4.06419 0.636C3.31567 0.931978 2.63836 1.40347 2.08179 2.016C1.50771 2.61021 1.06727 3.33653 0.793795 4.14C0.464695 5.07281 0.28667 6.05898 0.267395 7.056C0.200195 8.328 0.200195 8.736 0.200195 12C0.200195 15.264 0.200195 15.672 0.267395 16.944C0.28667 17.941 0.464695 18.9272 0.793795 19.86C1.06727 20.6635 1.50771 21.3898 2.08179 21.984C2.63836 22.5965 3.31567 23.068 4.06419 23.364C4.93482 23.7166 5.85524 23.9073 6.78579 23.928C7.97299 24 8.35379 24 11.4002 24C14.4466 24 14.8274 24 16.0146 23.928C16.9451 23.9073 17.8656 23.7166 18.7362 23.364C19.4861 23.071 20.164 22.5991 20.7186 21.984C21.2923 21.3871 21.7359 20.6618 22.0178 19.86C22.3372 18.9247 22.5112 17.9396 22.533 16.944C22.533 15.672 22.6002 15.264 22.6002 12C22.6002 8.736 22.6002 8.328 22.533 7.056ZM20.517 16.8C20.5088 17.5617 20.3801 18.3164 20.1362 19.032C19.9574 19.5542 19.6701 20.0261 19.2962 20.412C18.9329 20.8086 18.4934 21.1157 18.0082 21.312C17.3403 21.5733 16.6359 21.7113 15.925 21.72C14.805 21.78 14.3906 21.792 11.445 21.792C8.49939 21.792 8.08499 21.792 6.96499 21.72C6.22679 21.7348 5.49174 21.613 4.79219 21.36C4.32827 21.1537 3.90891 20.8473 3.56019 20.46C3.18845 20.0745 2.90482 19.6022 2.73139 19.08C2.45795 18.3542 2.30629 17.5823 2.28339 16.8C2.28339 15.6 2.21619 15.156 2.21619 12C2.21619 8.844 2.21619 8.4 2.28339 7.2C2.28841 6.42127 2.4211 5.64953 2.67539 4.92C2.87257 4.41349 3.17521 3.96199 3.56019 3.6C3.90047 3.1874 4.321 2.85972 4.79219 2.64C5.47489 2.37605 6.19443 2.2381 6.92019 2.232C8.04019 2.232 8.45459 2.16 11.4002 2.16C14.3458 2.16 14.7602 2.16 15.8802 2.232C16.5911 2.24074 17.2955 2.3787 17.9634 2.64C18.4724 2.84238 18.9292 3.17142 19.2962 3.6C19.6632 3.96861 19.95 4.41928 20.1362 4.92C20.3851 5.65072 20.514 6.42214 20.517 7.2C20.573 8.4 20.5842 8.844 20.5842 12C20.5842 15.156 20.573 15.6 20.517 16.8ZM11.4002 5.844C10.2643 5.84637 9.15455 6.20943 8.21117 6.8873C7.26778 7.56517 6.5331 8.52744 6.09994 9.6525C5.66679 10.7776 5.5546 12.015 5.77756 13.2083C6.00052 14.4017 6.54862 15.4974 7.3526 16.3572C8.15658 17.2169 9.18036 17.802 10.2946 18.0386C11.4088 18.2751 12.5635 18.1525 13.6127 17.6862C14.6619 17.22 15.5586 16.4309 16.1895 15.4188C16.8203 14.4068 17.157 13.217 17.157 12C17.1585 11.1901 17.0105 10.3879 16.7216 9.63955C16.4327 8.89117 16.0085 8.21137 15.4735 7.63926C14.9385 7.06715 14.3032 6.61401 13.6041 6.30592C12.9051 5.99782 12.1561 5.84083 11.4002 5.844ZM11.4002 15.996C10.6625 15.996 9.94147 15.7616 9.32814 15.3226C8.71481 14.8835 8.23678 14.2594 7.95449 13.5292C7.67221 12.799 7.59835 11.9956 7.74226 11.2204C7.88616 10.4453 8.24137 9.73325 8.76297 9.1744C9.28456 8.61555 9.94911 8.23497 10.6726 8.08078C11.3961 7.9266 12.146 8.00573 12.8274 8.30818C13.5089 8.61063 14.0914 9.1228 14.5012 9.77994C14.9111 10.4371 15.1298 11.2097 15.1298 12C15.1298 12.5248 15.0333 13.0444 14.8459 13.5292C14.6585 14.014 14.3837 14.4545 14.0374 14.8256C13.6911 15.1967 13.2799 15.491 12.8274 15.6918C12.375 15.8926 11.89 15.996 11.4002 15.996Z" fill="white"/>
</svg>
