<svg width="25" height="24" viewBox="0 0 25 24" fill="none" xmlns="http://www.w3.org/2000/svg">
<path d="M0.600098 2.78788C0.600098 1.97978 0.870376 1.31312 1.41091 0.787879C1.95144 0.262618 2.65416 0 3.51902 0C4.36845 0 5.05569 0.25857 5.58079 0.775758C6.12133 1.30909 6.3916 2.00402 6.3916 2.86061C6.3916 3.63636 6.12906 4.28281 5.60396 4.8C5.06343 5.33333 4.35299 5.6 3.47268 5.6H3.44952C2.60009 5.6 1.91285 5.33333 1.38774 4.8C0.862638 4.26667 0.600098 3.59595 0.600098 2.78788ZM0.901256 24V7.80606H6.04411V24H0.901256ZM8.89353 24H14.0364V14.9576C14.0364 14.3919 14.0982 13.9555 14.2217 13.6485C14.4379 13.099 14.7661 12.6343 15.2063 12.2545C15.6464 11.8747 16.1985 11.6848 16.8626 11.6848C18.5924 11.6848 19.4572 12.905 19.4572 15.3455V24H24.6001V14.7152C24.6001 12.3232 24.0596 10.5091 22.9785 9.27273C21.8974 8.03636 20.4688 7.41818 18.6928 7.41818C16.7005 7.41818 15.1484 8.31515 14.0364 10.1091V10.1576H14.0132L14.0364 10.1091V7.80606H8.89353C8.92441 8.32322 8.93987 9.9313 8.93987 12.6303C8.93987 15.3293 8.92441 19.1192 8.89353 24Z" fill="white"/>
</svg>
