<svg width="120" height="44" viewBox="0 0 120 44" fill="none" xmlns="http://www.w3.org/2000/svg">
<path fill-rule="evenodd" clip-rule="evenodd" d="M61.3245 5.99371C64.3336 8.77228 65.8381 10.161 65.8381 10.161C86.5228 8.14337 101.59 8.10747 111.04 10.0544C103.88 18.6033 100.301 22.8783 100.301 22.8783C93.4154 31.2325 87.542 32.3977 77.4307 32.1197C68.531 31.8754 59.7667 30.9974 51.1368 29.4894C40.4487 27.6212 24.1536 26.5661 13.637 29.611C12.671 25.4148 11.4781 23.9716 10.0569 25.2828C9.11064 19.0932 12.0097 16.7744 17.7614 16.6702C19.9678 16.6308 21.7897 17.4613 23.2271 19.165C25.818 10.4471 25.7103 7.04537 22.9062 8.95992C23.036 6.09563 26.1261 3.44909 32.1767 1.02146C36.0382 -0.528245 36.6648 -0.0128354 40.7116 0.611447C44.5407 1.20214 47.6528 1.6828 50.0469 2.05228C55.4338 2.88388 57.2348 2.22022 61.3245 5.99487V5.99371ZM50.1361 4.10001C40.7521 3.34138 36.0602 2.96264 36.0602 2.96264C41.849 9.83785 44.7422 13.2743 44.7422 13.2743C52.6309 11.5289 58.8378 10.549 63.363 10.3359C58.005 4.86444 56.9464 4.64901 50.1361 4.10001ZM26.1759 18.2176C30.8794 16.4872 36.0081 15.0267 41.564 13.836C41.564 13.836 38.848 10.5328 33.416 3.92512C31.601 4.23668 29.7757 5.03817 27.9399 6.32959C27.9399 6.32959 27.3527 10.2919 26.1771 18.2176H26.1759ZM106.83 13.382C85.3426 9.65369 54.8164 13.1886 15.2504 23.9879C15.9268 25.2167 16.265 25.8317 16.265 25.8317C50.9943 15.0556 81.1822 10.9069 106.829 13.382H106.83Z" fill="white"/>
<path fill-rule="evenodd" clip-rule="evenodd" d="M72.3926 8.27897C86.487 6.9447 99.5506 7.25626 111.583 9.21366C113.952 6.27525 115.137 4.80546 115.137 4.80546C101.978 3.53258 87.7298 4.68964 72.3926 8.27897Z" fill="white"/>
<path fill-rule="evenodd" clip-rule="evenodd" d="M3.521 35.4206C33.9186 21.698 76.3373 43.7703 104.398 30.7183C76.3026 48.0742 38.1924 29.3272 3.521 35.4206Z" fill="white"/>
<path fill-rule="evenodd" clip-rule="evenodd" d="M95.9554 37.6653C74.1322 53.0176 31.5188 34.5844 3.41455 38.4135C34.587 31.2499 69.5097 48.3881 95.9554 37.6653Z" fill="white"/>
</svg>
