<svg width="30" height="24" viewBox="0 0 30 24" fill="none" xmlns="http://www.w3.org/2000/svg">
<path d="M26.6192 5.98123C26.6376 6.24372 26.6376 6.50626 26.6376 6.76875C26.6376 14.775 20.6573 24 9.72703 24C6.35962 24 3.23146 23.0062 0.600098 21.2813C1.07854 21.3375 1.53852 21.3563 2.03538 21.3563C4.81389 21.3563 7.37168 20.4 9.41421 18.7688C6.80125 18.7125 4.61152 16.9688 3.85706 14.5687C4.22511 14.625 4.59311 14.6625 4.97957 14.6625C5.51318 14.6625 6.04685 14.5874 6.54365 14.4563C3.8203 13.8937 1.77772 11.4562 1.77772 8.51249V8.43752C2.56893 8.88752 3.48906 9.16877 4.46425 9.20622C2.86335 8.1187 1.81453 6.26247 1.81453 4.16246C1.81453 3.03748 2.1089 2.00623 2.62416 1.10622C5.54994 4.78122 9.94782 7.18118 14.8793 7.44372C14.7873 6.99372 14.732 6.52502 14.732 6.05626C14.732 2.71872 17.3818 0 20.6756 0C22.3869 0 23.9326 0.731248 25.0183 1.9125C26.3615 1.65001 27.6496 1.14374 28.7905 0.450003C28.3488 1.85628 27.4104 3.03754 26.1775 3.78748C27.3736 3.6563 28.5329 3.31872 29.6001 2.85002C28.7906 4.04997 27.7785 5.11868 26.6192 5.98123Z" fill="white"/>
</svg>
